<?xml version="1.0" encoding="UTF-8"?>
<svg id="Calque_2" data-name="Calque 2" xmlns="http://www.w3.org/2000/svg" viewBox="0 0 15.45 6.88">
  <defs>
    <style>
      .cls-1 {
        fill: #fff30d;
      }

      .cls-2 {
        fill: #0c3944;
      }
    </style>
  </defs>
  <g id="Calque_2-2" data-name="Calque 2">
    <g id="Calque_1-2" data-name="Calque 1-2">
      <g>
        <path class="cls-2" d="m4.75.88C5.08.06,6.03-.09,6.74.05c.81.16,1.15.62,1.16,1.49.01,1.11,0,2.23,0,3.34,0,.24-.07.34-.32.33-.38-.02-.76-.02-1.14,0-.26.02-.28-.11-.28-.31v-2.59c0-.35-.06-.68-.5-.79-.44-.12-.79.1-.8.56,0,.91-.02,1.83,0,2.74,0,.32-.1.42-.41.4-.33-.02-.66-.03-.98,0-.3.03-.35-.1-.35-.36,0-.84,0-1.68,0-2.51,0-.47-.21-.71-.66-.83-.4-.1-.71.15-.71.58,0,.9-.02,1.8,0,2.7,0,.34-.1.44-.43.42-.35-.03-.71-.01-1.06,0-.18,0-.27-.03-.26-.24V.4C0,.17.09.13.29.14c.3,0,.61,0,.91,0,.25,0,.56-.08.49.37-.03.17.1.12.18.04C2.43-.07,3.13-.05,3.86.1c.42.09.69.35.88.78h0Z"/>
        <path class="cls-2" d="m13.16.02c.66-.02,1.29.05,1.78.55.41.42.37.63-.17.8-.15.05-.3.11-.44.17-.25.1-.42.06-.59-.13-.24-.25-.52-.33-.87-.2-.14.05-.27.06-.26.24,0,.18.12.24.28.3.39.14.8.2,1.21.3.92.22,1.52,1.02,1.31,1.82-.2.74-.66,1.23-1.46,1.43-.89.22-1.7.14-2.48-.32-.06-.04-.12-.09-.17-.14-.6-.57-.57-.73.21-.99.06-.02.12-.04.17-.07.25-.14.42-.15.61.14.22.33.67.39.99.25.17-.07.3-.21.29-.35,0-.13-.12-.28-.29-.35-.32-.13-.65-.2-.98-.29-.55-.16-1.09-.38-1.27-.99-.28-.96.09-1.76,1.21-2.08.31-.09.62-.07.93-.08h0Z"/>
        <path class="cls-1" d="m9.62,6.87c-.3,0-.61.01-.91,0-.47-.02-.79-.35-.8-.8-.01-.48.28-.85.77-.87.64-.03,1.29-.03,1.93,0,.46.02.79.4.78.84,0,.44-.37.82-.83.84-.32.01-.63,0-.95,0h.01Z"/>
      </g>
    </g>
  </g>
</svg>