<?xml version="1.0" encoding="UTF-8"?>
<svg id="Calque_2" data-name="Calque 2" xmlns="http://www.w3.org/2000/svg" viewBox="0 0 16.23 10">
  <defs>
    <style>
      .cls-1 {
        fill: #fff30d;
      }

      .cls-2 {
        fill: #fff;
      }

      .cls-3 {
        fill: #0c3944;
      }
    </style>
  </defs>
  <g id="Calque_1-2" data-name="Calque 1">
    <g>
      <path class="cls-2" d="m8.11,8.57c-2.61,0-5.23,0-7.84,0-.23,0-.27-.05-.27-.27C0,5.62,0,2.95,0,.27,0,.04.05,0,.27,0c5.23,0,10.46,0,15.68,0,.23,0,.27.04.27.27,0,2.68,0,5.36,0,8.03,0,.22-.05.27-.27.27-2.61,0-5.23,0-7.84,0Zm-3.08-6.05c-.19-.43-.45-.7-.88-.78-.73-.15-1.43-.17-1.99.45-.08.09-.21.13-.18-.04.07-.45-.23-.37-.49-.37-.3,0-.61,0-.91,0-.2,0-.29.03-.29.26.01,1.53,0,3.05,0,4.58,0,.21.08.24.26.24.35-.01.71-.02,1.06,0,.33.02.44-.08.43-.42-.02-.9-.01-1.8,0-2.7,0-.44.31-.68.71-.58.46.11.66.36.66.83,0,.84.01,1.68,0,2.51,0,.26.04.39.35.36.33-.03.66-.02.98,0,.31.02.42-.07.41-.4-.02-.91-.01-1.83,0-2.74,0-.46.35-.68.8-.56.44.11.49.44.5.79,0,.86,0,1.73,0,2.59,0,.2.01.33.28.31.38-.02.76-.02,1.14,0,.25.01.33-.09.32-.33,0-1.11,0-2.23,0-3.34-.01-.87-.35-1.33-1.16-1.49-.71-.14-1.66,0-1.99.83Zm8.41-.86c-.31,0-.62-.01-.93.08-1.12.32-1.49,1.12-1.21,2.08.18.61.72.83,1.27.99.33.1.66.17.98.29.17.07.29.21.29.35,0,.14-.13.27-.29.35-.32.14-.77.08-.99-.25-.19-.29-.36-.28-.61-.14-.05.03-.11.05-.17.07-.77.26-.81.42-.21.99.05.05.11.1.17.14.78.47,1.59.55,2.48.32.8-.2,1.26-.69,1.46-1.43.22-.8-.38-1.6-1.31-1.82-.4-.09-.81-.15-1.21-.3-.15-.06-.27-.12-.28-.3,0-.19.12-.19.26-.24.35-.13.63-.05.87.2.18.19.34.23.59.13.14-.06.29-.13.44-.17.54-.16.58-.37.17-.8-.49-.51-1.12-.57-1.78-.55Zm-3.54,6.85s0,0,0,0c.32,0,.63.01.95,0,.46-.02.82-.4.83-.84,0-.43-.33-.82-.78-.84-.64-.03-1.29-.03-1.93,0-.49.02-.78.39-.77.87.01.44.34.77.8.8.3.01.61,0,.91,0Z"/>
      <path class="cls-3" d="m5.03,2.52c.33-.82,1.28-.97,1.99-.83.81.16,1.15.62,1.16,1.49.01,1.11,0,2.23,0,3.34,0,.24-.07.34-.32.33-.38-.02-.76-.02-1.14,0-.26.02-.28-.11-.28-.31,0-.86,0-1.73,0-2.59,0-.35-.06-.68-.5-.79-.44-.12-.79.1-.8.56,0,.91-.02,1.83,0,2.74,0,.32-.1.42-.41.4-.33-.02-.66-.03-.98,0-.3.03-.35-.1-.35-.36.01-.84,0-1.68,0-2.51,0-.47-.21-.71-.66-.83-.4-.1-.71.15-.71.58,0,.9-.02,1.8,0,2.7,0,.34-.1.44-.43.42-.35-.03-.71-.01-1.06,0-.18,0-.27-.03-.26-.24,0-1.53,0-3.05,0-4.58,0-.23.09-.27.29-.26.3.01.61,0,.91,0,.25,0,.56-.08.49.37-.03.17.1.12.18.04.56-.62,1.26-.6,1.99-.45.42.09.69.35.88.78Z"/>
      <path class="cls-3" d="m13.44,1.66c.66-.02,1.29.05,1.78.55.41.42.37.63-.17.8-.15.05-.3.11-.44.17-.25.1-.42.06-.59-.13-.24-.25-.52-.33-.87-.2-.14.05-.27.06-.26.24,0,.18.12.24.28.3.39.14.8.2,1.21.3.92.22,1.52,1.02,1.31,1.82-.2.74-.66,1.23-1.46,1.43-.89.22-1.7.14-2.48-.32-.06-.04-.12-.09-.17-.14-.6-.57-.57-.73.21-.99.06-.02.12-.04.17-.07.25-.14.42-.15.61.14.22.33.67.39.99.25.17-.07.3-.21.29-.35,0-.13-.12-.28-.29-.35-.32-.13-.65-.2-.98-.29-.55-.16-1.09-.38-1.27-.99-.28-.96.09-1.76,1.21-2.08.31-.09.62-.07.93-.08Z"/>
      <path class="cls-1" d="m9.9,8.51c-.3,0-.61.01-.91,0-.47-.02-.79-.35-.8-.8-.01-.48.28-.85.77-.87.64-.03,1.29-.03,1.93,0,.46.02.79.4.78.84,0,.44-.37.82-.83.84-.32.01-.63,0-.95,0,0,0,0,0,0,0Z"/>
    </g>
  </g>
</svg>