<svg width="32" height="34" viewBox="0 0 32 34" fill="none" xmlns="http://www.w3.org/2000/svg">
<path d="M25.4299 30.8886L29.6809 15.8469C29.9664 14.8364 29.2072 13.833 28.1572 13.833H19.0675C18.5107 13.833 18.0987 13.3151 18.2239 12.7726L18.6193 11.0591C18.982 9.48731 19.0985 7.86883 18.9645 6.26135L18.8917 5.38806C18.8137 4.45124 18.4061 3.57241 17.7414 2.90769C17.1333 2.29962 16.3086 1.95801 15.4486 1.95801H15.2593C14.7392 1.95801 14.26 2.23997 14.0075 2.6946L11.9031 6.4823C10.9594 8.18114 9.55259 9.57701 7.84655 10.5076L2.57515 13.3829C2.06648 13.6603 1.75 14.1935 1.75 14.773V30.458C1.75 31.3325 2.45888 32.0413 3.33333 32.0413H23.9063C24.6149 32.0413 25.2372 31.5705 25.4299 30.8886Z" fill="white"/>
</svg>
