<?xml version="1.0" encoding="UTF-8"?>
<svg id="Calque_2" data-name="Calque 2" xmlns="http://www.w3.org/2000/svg" viewBox="0 0 1365.01 199.44">
  <defs>
    <style>
      .cls-1, .cls-2, .cls-3 {
        fill: #050;
      }

      .cls-4, .cls-5 {
        fill: #66e31c;
      }

      .cls-5, .cls-2, .cls-6, .cls-7, .cls-8 {
        stroke-miterlimit: 10;
        stroke-width: 20px;
      }

      .cls-5, .cls-2, .cls-7, .cls-8 {
        stroke-linecap: round;
      }

      .cls-5, .cls-7 {
        stroke: #66e31c;
      }

      .cls-2, .cls-8 {
        stroke: #050;
      }

      .cls-6 {
        stroke: #000;
      }

      .cls-6, .cls-7, .cls-8 {
        fill: none;
      }

      .cls-3 {
        fill-rule: evenodd;
      }
    </style>
  </defs>
  <g id="Calque_1-2" data-name="Calque 1">
    <g>
      <path class="cls-6" d="m38.5,102.64c394.33-1,788.67-2,1183-3"/>
      <g>
        <path class="cls-7" d="m38.5,102.64c394.33-1,788.67-2,1183-3"/>
        <polygon class="cls-4" points="1192.57 199.44 1365.01 99.29 1192.07 0 1192.57 199.44"/>
      </g>
    </g>
    <circle class="cls-5" cx="39" cy="102.14" r="29"/>
    <g>
      <path class="cls-6" d="m38.5,102.64c394.33-1,788.67-2,1183-3"/>
      <g>
        <path class="cls-8" d="m38.5,102.64c394.33-1,788.67-2,1183-3"/>
        <polygon class="cls-1" points="1192.57 199.44 1365.01 99.29 1192.07 0 1192.57 199.44"/>
      </g>
      <path class="cls-3" d="m38.5,102.64c394.33-1,788.67-2,1183-3"/>
    </g>
    <circle class="cls-2" cx="39" cy="102.14" r="29"/>
  </g>
</svg>