<?xml version="1.0" encoding="utf-8"?>
<!-- Generator: Adobe Illustrator 27.1.0, SVG Export Plug-In . SVG Version: 6.00 Build 0)  -->
<svg version="1.1" id="Calque_1" xmlns="http://www.w3.org/2000/svg" xmlns:xlink="http://www.w3.org/1999/xlink" x="0px" y="0px"
	 viewBox="0 0 38 39" style="enable-background:new 0 0 38 39;" xml:space="preserve" width="38" height="39">
<style type="text/css">
	.st0{fill:#FFFFFF;}
</style>
<g id="Calque_2">
</g>
<path class="st0" d="M34.2,0.6H3.8C1.7,0.6,0,2.5,0,4.8v29.6c0,2.3,1.7,4.2,3.8,4.2h30.4c2.1,0,3.8-1.9,3.8-4.2V4.8
	C38,2.5,36.3,0.6,34.2,0.6z M3.8,34.4V4.8h30.4l0,29.6H3.8z"/>
<g id="Calque_3">
	<g>
		<g>
			<path class="st0" d="M7,22.8v-4.2H6.4v-1.7H7v-0.1c0-1.4,0.7-2,2.2-2c0.6,0,0.9,0.1,1.1,0.1v1.5c-0.1,0-0.2,0-0.2,0
				c-0.2,0-0.3,0.1-0.3,0.4v0.2h0.7v1.7H9.8v4.2H7z"/>
			<path class="st0" d="M11.1,14.9h2.7v1.5h-2.7V14.9z M11.1,16.9h2.7v5.9h-2.7V16.9z"/>
			<path class="st0" d="M14.7,18.7c0-1.2,0-1.6,0-1.9h2.7c0,0.1,0,0.4,0,0.5c0.3-0.4,0.7-0.7,1.6-0.7c1.1,0,1.7,0.8,1.7,2v4H18v-3.6
				c0-0.4-0.1-0.5-0.3-0.5c-0.2,0-0.3,0.1-0.3,0.6v3.5h-2.7V18.7z"/>
			<path class="st0" d="M27.5,20.9c0,0.6,0,1.6,0.1,1.9h-2.4c-0.1-0.1-0.1-0.3-0.1-0.5c-0.5,0.6-1.1,0.7-1.7,0.7
				c-1.1,0-1.9-0.8-1.9-1.9c0-0.9,0.4-2,2.8-2c0.2,0,0.4,0,0.6,0v-0.5c0-0.3-0.1-0.5-0.3-0.5c-0.3,0-0.4,0.2-0.4,0.5h-2.5
				c0.1-1,0.7-2,3-2c2.3,0,2.9,0.9,2.9,2.1V20.9z M24.9,20.1c-0.1,0-0.1,0-0.2,0c-0.4,0-0.5,0.3-0.5,0.6c0,0.3,0.2,0.5,0.4,0.5
				c0.3,0,0.4-0.3,0.4-0.9V20.1z"/>
			<path class="st0" d="M28.5,22.8v-7.9h2.7v7.9H28.5z"/>
		</g>
	</g>
</g>
<g>
	<g>
	</g>
</g>
</svg>
