<?xml version="1.0" encoding="utf-8"?>
<!-- Generator: Adobe Illustrator 27.1.0, SVG Export Plug-In . SVG Version: 6.00 Build 0)  -->
<svg version="1.1" id="Calque_1" xmlns="http://www.w3.org/2000/svg" xmlns:xlink="http://www.w3.org/1999/xlink" x="0px" y="0px"
	 viewBox="0 0 38 39" style="enable-background:new 0 0 38 39;" xml:space="preserve" width="38" height="39">
<style type="text/css">
	.st0{fill:#FFFFFF;}
</style>
<g id="Calque_2">
</g>
<path class="st0" d="M34.2,0.6H3.8C1.7,0.6,0,2.5,0,4.8v29.6c0,2.3,1.7,4.2,3.8,4.2h30.4c2.1,0,3.8-1.9,3.8-4.2V4.8
	C38,2.5,36.3,0.6,34.2,0.6z M3.8,34.4V4.8h30.4l0,29.6H3.8z"/>
<g id="Calque_3">
	<g>
		<g>
			<path class="st0" d="M18.9,23.9c0,0.4,0.3,0.7,0.8,0.7c0.4,0,0.5-0.2,0.5-0.4c0-0.3-0.3-0.4-0.9-0.5c-2.7-0.5-3.2-1.3-3.2-2.5
				c0-1.6,1.3-2.6,3.6-2.6c2.8,0,3.6,1.4,3.7,2.5h-3c0-0.4-0.3-0.7-0.7-0.7c-0.4,0-0.5,0.1-0.5,0.4c0,0.2,0.2,0.3,1.4,0.6
				c1.9,0.5,2.9,1.1,2.9,2.6c0,1.5-1.1,2.7-3.8,2.7c-2.6,0-3.7-1.2-3.8-2.7H18.9z"/>
			<path class="st0" d="M23.9,18.7h0.9v-1.8h3.5v1.8h1.1V21h-1.1v2.7c0,0.4,0.1,0.6,0.6,0.6c0.1,0,0.2,0,0.3,0v2.1
				c-0.5,0.2-1.4,0.2-1.9,0.2c-2.1,0-2.6-0.7-2.6-2.3V21h-0.9V18.7z"/>
		</g>
	</g>
</g>
<g>
	<g>
		<path class="st0" d="M9,26.6v-10c-0.6,0-1.3-0.2-1.5-0.2v-3.2c1.4-0.1,2.4-0.7,3-1.4h4.3v14.8H9z"/>
	</g>
</g>
<g>
	<g>
	</g>
</g>
</svg>
