<svg width="30" height="30" viewBox="0 0 38 39" fill="#0D3944" xmlns="http://www.w3.org/2000/svg">
<path fill-rule="evenodd" clip-rule="evenodd" d="M0.33458 33.9653L16.1673 2.28512C17.335 -0.050769 20.665 -0.050769 21.8327 2.28512L37.6654 33.9653C37.9069 34.4483 38.021 34.9849 37.9968 35.5243C37.9727 36.0637 37.8111 36.588 37.5274 37.0474C37.2437 37.5067 36.8473 37.886 36.3759 38.1491C35.9044 38.4121 35.3736 38.5503 34.8338 38.5505H3.16834C2.62832 38.5507 2.09723 38.4128 1.62551 38.1498C1.1538 37.8869 0.757128 37.5077 0.473185 37.0483C0.189243 36.5888 0.0274571 36.0644 0.00319805 35.5248C-0.021061 34.9852 0.0930119 34.4484 0.33458 33.9653ZM19.0011 13.2063C19.5611 13.2063 20.0982 13.4289 20.4942 13.8249C20.8902 14.221 21.1126 14.7582 21.1126 15.3184V21.6544C21.1126 22.2146 20.8902 22.7517 20.4942 23.1478C20.0982 23.5439 19.5611 23.7664 19.0011 23.7664C18.441 23.7664 17.9039 23.5439 17.5079 23.1478C17.1119 22.7517 16.8895 22.2146 16.8895 21.6544V15.3184C16.8895 14.7582 17.1119 14.221 17.5079 13.8249C17.9039 13.4289 18.441 13.2063 19.0011 13.2063ZM21.1126 30.1025C21.1126 30.6626 20.8902 31.1998 20.4942 31.5959C20.0982 31.992 19.5611 32.2145 19.0011 32.2145C18.441 32.2145 17.9039 31.992 17.5079 31.5959C17.1119 31.1998 16.8895 30.6626 16.8895 30.1025C16.8895 29.5423 17.1119 29.0051 17.5079 28.609C17.9039 28.213 18.441 27.9905 19.0011 27.9905C19.5611 27.9905 20.0982 28.213 20.4942 28.609C20.8902 29.0051 21.1126 29.5423 21.1126 30.1025Z"/>
</svg>
