<svg width="38" height="39" viewBox="0 0 38 39" fill="none" xmlns="http://www.w3.org/2000/svg">
<path d="M11.3972 7.12924C11.3972 3.19187 14.8002 0 18.9981 0C23.196 0 26.5992 3.19187 26.5992 7.12924C26.5992 10.6618 23.8599 13.5943 20.2649 14.1599V17.8192H27.8643C29.9627 17.8192 31.6639 19.4148 31.6639 21.383V23.8573C35.2597 24.422 38 27.355 38 30.8882C38 34.8256 34.597 38.0173 30.3991 38.0173C26.201 38.0173 22.798 34.8256 22.798 30.8882C22.798 27.356 25.5366 24.4239 29.1308 23.8577V21.383C29.1308 20.727 28.5636 20.1951 27.8643 20.1951H10.1325C9.43296 20.1951 8.8659 20.727 8.8659 21.383V23.8573C12.4618 24.422 15.202 27.355 15.202 30.8882C15.202 34.8256 11.7989 38.0173 7.60101 38.0173C3.40309 38.0173 0 34.8256 0 30.8882C0 27.356 2.73855 24.4239 6.33278 23.8577V21.383C6.33278 19.4148 8.03395 17.8192 10.1325 17.8192H17.7318V14.1599C14.1366 13.5944 11.3972 10.6619 11.3972 7.12924Z" fill="white"/>
</svg>
